<svg xmlns="http://www.w3.org/2000/svg" xmlns:xlink="http://www.w3.org/1999/xlink" width="500" zoomAndPan="magnify" viewBox="0 0 375 374.999991" height="500" preserveAspectRatio="xMidYMid meet" version="1.0"><defs><g/></defs><rect x="-37.5" width="450" fill="#ffffff" y="-37.499999" height="449.999989" fill-opacity="1"/><rect x="-37.5" width="450" fill="#ffffff" y="-37.499999" height="449.999989" fill-opacity="1"/><rect x="-37.5" width="450" fill="#ffffff" y="-37.499999" height="449.999989" fill-opacity="1"/><g fill="#231f20" fill-opacity="1"><g transform="translate(54.712892, 336.802223)"><g><path d="M 15.351562 -89.042969 C 49.128906 -17.65625 95.566406 7.675781 156.976562 7.675781 C 207.253906 7.675781 250.242188 -18.039062 250.242188 -72.539062 C 250.242188 -124.351562 214.164062 -149.300781 141.625 -197.660156 C 86.355469 -234.121094 69.46875 -246.019531 69.46875 -270.199219 C 69.46875 -290.925781 87.507812 -306.660156 117.828125 -306.660156 C 167.722656 -306.660156 187.296875 -264.058594 198.425781 -221.839844 L 243.714844 -240.644531 C 209.171875 -293.226562 170.410156 -314.71875 121.667969 -314.71875 C 72.921875 -314.71875 33.390625 -291.691406 33.390625 -246.785156 C 33.390625 -205.335938 58.722656 -184.226562 121.28125 -141.625 C 183.074219 -98.253906 214.546875 -77.914062 214.546875 -48.359375 C 214.546875 -18.039062 193.820312 -0.382812 161.582031 -0.382812 C 110.152344 -0.382812 73.308594 -49.128906 61.023438 -114.375 Z M 15.351562 -89.042969 "/></g></g></g></svg>